<?xml version="1.0" encoding="UTF-8"?><svg id="a" xmlns="http://www.w3.org/2000/svg" width="79.46" height="176.71" viewBox="0 0 79.46 176.71"><defs><style>.b{fill:#fff;}.c{fill:#ce0e2d;}</style></defs><g><g><path class="b" d="M13.06,124.03v1.64H0v-20.67H12.24v1.64c-2.04-.88-3.87-1.22-7.03-1.22h-.21v9.68c2.13-.03,3.71-.18,5.75-.61v1.64c-2.13-.43-3.62-.61-5.75-.61v9.71h.85c3.65,0,5.08-.3,7.22-1.22Z"/><path class="b" d="M15.56,125v-2.16c1.64,1.83,3.41,2.86,5.82,2.86,3.32,0,4.96-1.46,4.96-3.47,0-2.53-2.25-3.32-4.78-4.57l-1.37-.67c-3.04-1.52-4.93-2.98-4.93-6.3,0-4.05,3.04-6.15,7.4-6.15,1.86,0,3.78,.4,5.15,1.04v2.13c-1.64-1.71-3.04-2.74-5.18-2.74-2.31,0-4.08,1.07-4.08,3.29,0,2.1,1.28,2.8,3.75,4.02l1.4,.7c3.74,1.86,5.97,3.08,5.97,6.55,0,4.51-3.53,6.61-8.31,6.61-2.28,0-4.45-.55-5.78-1.13Z"/><path class="b" d="M32.15,125v-2.16c1.64,1.83,3.41,2.86,5.82,2.86,3.32,0,4.96-1.46,4.96-3.47,0-2.53-2.25-3.32-4.78-4.57l-1.37-.67c-3.04-1.52-4.93-2.98-4.93-6.3,0-4.05,3.04-6.15,7.4-6.15,1.86,0,3.78,.4,5.15,1.04v2.13c-1.64-1.71-3.04-2.74-5.18-2.74-2.31,0-4.08,1.07-4.08,3.29,0,2.1,1.28,2.8,3.75,4.02l1.4,.7c3.74,1.86,5.97,3.08,5.97,6.55,0,4.51-3.53,6.61-8.31,6.61-2.28,0-4.45-.55-5.78-1.13Z"/><path class="b" d="M48.74,125v-2.16c1.64,1.83,3.41,2.86,5.82,2.86,3.32,0,4.96-1.46,4.96-3.47,0-2.53-2.25-3.32-4.78-4.57l-1.37-.67c-3.04-1.52-4.93-2.98-4.93-6.3,0-4.05,3.04-6.15,7.4-6.15,1.86,0,3.78,.4,5.15,1.04v2.13c-1.64-1.71-3.04-2.74-5.18-2.74-2.31,0-4.08,1.07-4.08,3.29,0,2.1,1.28,2.8,3.75,4.02l1.4,.7c3.75,1.86,5.97,3.08,5.97,6.55,0,4.51-3.53,6.61-8.31,6.61-2.28,0-4.45-.55-5.78-1.13Z"/><path class="b" d="M79.43,124.03v1.64h-13.06v-20.67h12.24v1.64c-2.04-.88-3.87-1.22-7.03-1.22h-.21v9.68c2.13-.03,3.71-.18,5.75-.61v1.64c-2.13-.43-3.62-.61-5.75-.61v9.71h.85c3.65,0,5.08-.3,7.22-1.22Z"/></g><g><path class="b" d="M0,145.09C0,138.87,4.08,134.82,11.19,134.82c1.68,0,3.76,.38,5.03,.98v1.82c-1.53-1.62-2.72-2.4-4.89-2.4-3.82,0-6.25,3.88-6.25,9.86s2.43,9.75,6.65,9.75c1.5,0,2.92-.4,4.45-1.48v.49c-1.19,.75-2.63,1.48-5.03,1.48C4.08,155.33,0,151.4,0,145.09Z"/><path class="b" d="M28.06,150.24h-7.72c-.61,2.11-.9,3.67-1.04,4.66h-1.76c1.45-3.24,3.62-8.79,5.81-14.41l2.4-5.81h.38l8.65,20.22h-4.74l-1.97-4.66Zm-.14-.41l-3.93-9.34h-.17c-1.59,3.79-2.63,6.91-3.36,9.34h7.46Z"/><path class="b" d="M49.06,135.26v1.56c-1.94-.84-3.67-1.16-6.68-1.16h-.2v8.97c2.02-.03,3.53-.17,5.47-.58v1.56c-2.02-.41-3.44-.58-5.47-.58v9.86h-4.74v-19.64h11.63Z"/><path class="b" d="M63.87,135.26v1.56c-1.94-.84-3.67-1.16-6.68-1.16h-.2v8.97c2.02-.03,3.53-.17,5.47-.58v1.56c-2.02-.41-3.44-.58-5.47-.58v9.86h-4.74v-19.64h11.63Z"/><path class="b" d="M79.46,153.34v1.56h-12.41v-19.64h11.63v1.56c-1.94-.84-3.67-1.16-6.68-1.16h-.2v9.2c2.02-.03,3.53-.17,5.47-.58v1.56c-2.02-.4-3.44-.58-5.47-.58v9.23h.81c3.47,0,4.83-.29,6.86-1.16Z"/><polygon class="b" points="72.75 133.83 67.69 130.18 67.69 129.94 71.49 129.94 73.07 133.83 72.75 133.83"/></g></g><g><path class="b" d="M66.16,1.15c-2.03-.89-4.14-1.27-6.1-1.12-4.41,.38-6.26,2.73-7.03,4.63l-.04,.12c-.05-.78-.26-1.56-.63-2.24-.62-1.16-1.65-1.96-2.89-2.26-1.82-.49-4.05-.34-6.62,.44C28.7,5.02,16.38,16.79,12.22,30.02c-4.12,13.1,.62,25.14,11.78,29.95,.73,.32,1.46,.57,2.18,.75l-15.7-.02c-.32,0-.69,0-1.04,.04v-.04c-4.18,.01-7.73,2.64-8.63,6.38-2.94,11.73,2.19,23.03,12.47,27.48,1.74,.76,3.53,1.15,5.21,1.15,.3,0,.59-.01,.88-.04,4.4-.37,6.25-2.72,7.03-4.62,.07,.74,.28,1.48,.63,2.13,.62,1.15,1.64,1.95,2.88,2.24,.71,.2,1.46,.29,2.28,.29,1.29,0,2.73-.24,4.34-.73,14.9-4.51,26.93-16.03,30.66-29.34,3.77-13.46-.86-25.2-11.8-29.91-.73-.32-1.46-.57-2.2-.75l15.76,.02h.05c.31,0,.65,0,.99-.04v.04c4.18,0,7.73-2.64,8.63-6.38,2.95-11.74-2.18-23.04-12.46-27.48Z"/><g><path class="c" d="M70,33.19c.15,0-24.03-.03-24.03-.03L54.72,5.35c.85-2.11,2.74-3.27,5.5-3.51,1.73-.14,3.54,.24,5.22,.97,9.42,4.06,14.2,14.31,11.43,25.37-.69,2.86-3.49,5-6.87,5"/><path class="c" d="M50.6,36.41c1.38,.06,2.77,.43,4.08,.99,10.05,4.33,14.34,15.01,10.77,27.75-3.8,13.56-16.18,24.07-29.44,28.09-1.86,.56-3.92,.9-5.65,.41-1.99-.45-2.47-2.89-1.99-4.16l15.27-48.63c1-3.04,3.36-4.5,6.47-4.49,.16,0,.34,.02,.48,.03"/><path class="c" d="M9.46,62.52c-.14,0,24.02,.03,24.02,.03l-8.75,27.81c-.85,2.11-2.74,3.27-5.5,3.51-1.73,.15-3.54-.24-5.22-.97C4.6,88.83-.19,78.59,2.58,67.53c.69-2.86,3.5-5,6.88-5.01"/><path class="c" d="M28.8,59.3c-1.38-.06-2.77-.42-4.08-.99-10.06-4.33-14.74-15.13-10.77-27.74C18.05,17.54,30.13,6.49,43.39,2.47c1.85-.57,3.92-.9,5.64-.42,2,.46,2.47,2.89,1.99,4.16l-15.28,48.63c-.99,3.04-3.35,4.5-6.47,4.5-.16,0-.35-.02-.48-.03"/></g></g><g><path class="b" d="M0,170.79H2.88v1.12H1.21v1.13h1.66v1.12H1.21v1.42h1.66v1.12H0v-5.91Z"/><path class="b" d="M5.96,174.84c.02,.62,.22,.9,.75,.9,.45,0,.69-.28,.69-.7,0-.54-.64-.66-1.28-.91-.64-.26-1.28-.62-1.28-1.62,0-1.12,.69-1.84,1.81-1.84s1.7,.53,1.88,1.69h-1.18c-.02-.43-.26-.69-.65-.69s-.62,.29-.62,.65c0,.56,.64,.66,1.28,.92s1.28,.66,1.28,1.78-.83,1.79-1.96,1.79c-1.35,0-1.94-.73-1.94-1.97h1.21Z"/><path class="b" d="M12.2,170.79c.56,0,1.05,.17,1.39,.5,.34,.33,.54,.82,.54,1.43s-.2,1.1-.54,1.43c-.34,.33-.83,.5-1.39,.5h-.46v2.06h-1.21v-5.91h1.68Zm-.46,2.73h.45c.24,0,.42-.06,.53-.19,.12-.13,.18-.32,.18-.62s-.06-.5-.18-.62c-.11-.13-.29-.18-.53-.18h-.45v1.61Z"/><path class="b" d="M15.95,170.79h1.53c.84,0,1.37,.22,1.63,.52,.3,.37,.48,.79,.48,1.37,0,.32-.06,.63-.18,.9-.18,.38-.42,.62-.7,.78l1.12,2.36h-1.36l-1.3-3c.14,0,.21,0,.3,0,.22-.02,.45-.07,.6-.22,.2-.19,.26-.45,.26-.68,0-.29-.06-.54-.28-.72-.13-.11-.33-.16-.62-.16h-.28v4.8h-1.21v-5.91Z"/><path class="b" d="M21.49,170.79h2.88v1.12h-1.66v1.13h1.66v1.12h-1.66v1.42h1.66v1.12h-2.88v-5.91Z"/><path class="b" d="M27.46,174.84c.02,.62,.22,.9,.75,.9,.45,0,.69-.28,.69-.7,0-.54-.64-.66-1.28-.91-.64-.26-1.28-.62-1.28-1.62,0-1.12,.69-1.84,1.81-1.84s1.7,.53,1.88,1.69h-1.18c-.02-.43-.26-.69-.65-.69s-.62,.29-.62,.65c0,.56,.64,.66,1.28,.92s1.28,.66,1.28,1.78-.83,1.79-1.96,1.79c-1.35,0-1.94-.73-1.94-1.97h1.21Z"/><path class="b" d="M32.94,174.84c.02,.62,.22,.9,.75,.9,.45,0,.69-.28,.69-.7,0-.54-.64-.66-1.28-.91-.64-.26-1.28-.62-1.28-1.62,0-1.12,.69-1.84,1.81-1.84s1.7,.53,1.88,1.69h-1.18c-.02-.43-.26-.69-.65-.69s-.62,.29-.62,.65c0,.56,.64,.66,1.28,.92s1.28,.66,1.28,1.78-.83,1.79-1.96,1.79c-1.35,0-1.94-.73-1.94-1.97h1.21Z"/><path class="b" d="M37.21,173.74c0-1.85,.72-3.06,2.17-3.06s2.17,1.21,2.17,3.07-.72,3.07-2.17,3.07-2.17-1.21-2.17-3.07h0Zm1.25,0c0,1.41,.3,1.94,.93,1.94s.93-.53,.93-1.95-.3-1.95-.93-1.95-.93,.53-.93,1.95h0Z"/><path class="b" d="M46.63,170.79h1.21v5.91h-1.21v-5.91Z"/><path class="b" d="M52.67,174.27v-3.48h1.07v5.91h-1.09l-1.66-3.79v3.79h-1.07v-5.91h1.23l1.52,3.48Z"/><path class="b" d="M59.08,170.79h1.21v5.91h-1.21v-5.91Z"/><path class="b" d="M63.01,171.91h-.99v-1.12h3.2v1.12h-.99v4.8h-1.21v-4.8Z"/><path class="b" d="M67.08,176.71h-1.23l1.61-5.91h1.12l1.68,5.91h-1.23l-.3-1.13h-1.36l-.29,1.13Zm.96-4.18l-.38,1.93h.75l-.38-1.93Z"/><path class="b" d="M71.88,170.79h1.21v4.8h1.55v1.12h-2.77v-5.91Z"/><path class="b" d="M76.82,174.34l-1.42-3.55h1.25l.79,2.41,.78-2.41h1.25l-1.42,3.55v2.37h-1.21v-2.37Z"/></g></svg>